# xmcd CD database file
#
# Track frame offsets:
#	150
#	20647
#	38939
#	56137
#	83700
#	105375
#	137388
#	153825
#	182962
#	203831
#	223350
#	244050
#
# Disc length: 3618 seconds
#
# Revision: 0
# Processed by: cddbd v1.5.2PL0 Copyright (c) Steve Scherf et al.
# Submitted via: CDex 1.51
#
DISCID=a50e200c
DTITLE=Variuos artists - NANS 174 Another Cosnciousness
DYEAR=2007
DGENRE=New Age
TTITLE0=01 Riccardo Eberspacher - Maria
TTITLE1=02 Charlotte McHatton - Peace
TTITLE2=03 Jean-Françoise Maljean - Tro mare
TTITLE3=04 Geraint Hughes - Part II (Excerpt)
TTITLE4=05 Capitanata - Fly
TTITLE5=06 Philippe Cheréton - Pour Nadine
TTITLE6=07 Parish - Oriental Chill
TTITLE7=08 Shajan - Cosmic balance (Excerpt)
TTITLE8=09 State of Grace - Somnium
TTITLE9=10 Robin Guthrie - Last exit
TTITLE10=11 Darlene Koldenhoven - Enchantment
TTITLE11=12 Shajan - Still waters
EXTD=YEAR: 2007
EXTT0=
EXTT1=
EXTT2=
EXTT3=
EXTT4=
EXTT5=
EXTT6=
EXTT7=
EXTT8=
EXTT9=
EXTT10=
EXTT11=
PLAYORDER=
